<svg xmlns="http://www.w3.org/2000/svg" viewBox="0 0 501.33 172.79"><defs><style>.cls-1{fill:#fff;fill-rule:evenodd;}</style></defs><title>Asset 2</title><g id="Layer_2" data-name="Layer 2"><g id="Layer_1-2" data-name="Layer 1"><path class="cls-1" d="M86.39,10.8A75.6,75.6,0,1,1,10.8,86.39,75.59,75.59,0,0,1,86.39,10.8m0-10.8A86.4,86.4,0,1,1,0,86.39,86.39,86.39,0,0,1,86.39,0Z"/><path class="cls-1" d="M86.39,18a68.35,68.35,0,0,1,8.09,136.23L91.24,98.62l8.21-.7,8,5.25c-2.76,9.2,9.33,13,16.73,11.18-.36-7.62-7.56-18.07-15.56-12.76l-4.81-4,16.44-1.4c4.62,11.41,20.32,6,26.68-1.82-6.36-7.79-22.07-13.24-26.68-1.81l-16.44-1.4,4.81-4.05c8,5.32,15.2-5.14,15.56-12.76-7.4-1.87-19.49,2-16.73,11.18l-8.06,5.25L90.74,90,90,76.88l6.37-9.78c10.36,3.11,14.7-10.5,12.59-18.83-8.58.4-20.35,8.51-14.37,17.51l-4.89,5.83L88.52,52.05c11.94-5,6.15-21.65-2.13-28.4C78.12,30.4,72.32,47,84.27,52.05L83.13,71.61l-4.91-5.83c6-9-5.78-17.11-14.37-17.51-2.1,8.33,2.24,21.94,12.6,18.83l6.37,9.78L82.05,90l-8.7.73-8.06-5.25c2.76-9.2-9.33-13-16.73-11.18.36,7.62,7.56,18.08,15.56,12.76l4.81,4.05-16.44,1.4c-4.61-11.43-20.31-6-26.68,1.81,6.36,7.79,22.06,13.23,26.68,1.82l16.44,1.4-4.81,4c-8-5.31-15.2,5.14-15.56,12.76,7.4,1.87,19.5-2,16.73-11.18l8-5.25,8.21.7-3.24,55.63A68.35,68.35,0,0,1,86.39,18"/><path class="cls-1" d="M459,71.77a.41.41,0,0,1-.41-.47V69.87c0-10.31,0-12.21.14-14.38.13-2.37.68-3.66,2.51-3.93a18.45,18.45,0,0,1,2-.14c.62,0,1.22-.13,1.22-.61S464,50.2,463,50.2c-2.65,0-6.92.21-8.55.21-1.83,0-6.1-.21-9.76-.21-.95,0-1.43.14-1.43.61s.41.61,1.16.61a13.52,13.52,0,0,1,2.64.21c2.24.47,2.78,1.56,2.92,3.86s.13,4.07.13,14.38V81.81c0,6.24,0,11.6-.34,14.45-.27,2-.61,3.46-2,3.73a11.5,11.5,0,0,1-2.45.27c-.81,0-1.08.2-1.08.54s.47.68,1.36.68c2.71,0,7-.2,8.54-.2,1.9,0,6.17.2,10.58.2.82,0,1.36-.2,1.36-.68s-.34-.54-1.08-.54a29.75,29.75,0,0,1-3.46-.27c-2-.27-2.45-1.77-2.65-3.66-.34-2.92-.34-8.28-.34-14.52v-6a.36.36,0,0,1,.41-.41h25.91a.4.4,0,0,1,.41.41v6c0,6.24,0,11.6-.34,14.45-.27,2-.61,3.46-2,3.73a11.39,11.39,0,0,1-2.44.27c-.82,0-1.09.2-1.09.54s.48.68,1.43.68c2.64,0,6.92-.2,8.48-.2,1.89,0,6.17.2,10.58.2.81,0,1.35-.2,1.35-.68s-.34-.54-1.08-.54a29.75,29.75,0,0,1-3.46-.27c-2-.27-2.44-1.77-2.65-3.66-.34-2.92-.34-8.28-.34-14.52V69.87c0-10.31,0-12.21.14-14.38.14-2.37.68-3.52,2.51-3.86a11.61,11.61,0,0,1,2-.21c.81,0,1.22-.13,1.22-.61s-.48-.61-1.43-.61c-2.64,0-6.92.21-8.54.21-1.83,0-6.11-.21-9.77-.21-.95,0-1.42.14-1.42.61s.4.61,1.15.61a13.45,13.45,0,0,1,2.64.21c2.24.47,2.78,1.56,2.92,3.86s.14,4.07.14,14.38V71.3a.41.41,0,0,1-.41.47ZM417.5,102.43a19.6,19.6,0,0,0,10.78-2.78,13.66,13.66,0,0,0,6.38-11.8c0-6.45-2.92-11.13-11.12-17.3l-1.9-1.42c-5.63-4.28-7.19-6.65-7.19-9.77,0-4.07,3.05-7,8.07-7,4.41,0,6.37,2,7.39,3.33a8.13,8.13,0,0,1,1.76,4.47c0,.82.21,1.22.68,1.22s.75-.54.75-2c0-5.29.27-7.26.27-8.14,0-.47-.34-.68-.95-.81a28,28,0,0,0-2.78-.61,35.73,35.73,0,0,0-6.24-.55c-9.43,0-15.67,5.36-15.67,12.82,0,5.5,2.58,10.24,10,16.08l3.12,2.44c5.63,4.41,6.65,7.53,6.65,10.85,0,3.6-3,7.73-9.09,7.73-4.21,0-8.21-1.83-9.7-6.85a14.19,14.19,0,0,1-.61-3.46c0-.54-.07-1.15-.68-1.15s-.75.75-.81,1.77-.34,5.15-.34,8.88c0,1.49.2,1.83,1.29,2.31A23.43,23.43,0,0,0,417.5,102.43Zm-48.23-22c-.27,0-.34-.21-.27-.48l6.24-16.68c.27-.82.54-.61.75,0L382.09,80c.07.2,0,.41-.34.41ZM383,83.78a.65.65,0,0,1,.68.47l5.43,14.38a1.1,1.1,0,0,1-.61,1.56c-.68.07-1,.27-1,.61s.34.48,1.56.55c5.42.13,10.85.13,13.29.13s3.12-.13,3.12-.68c0-.4-.34-.54-.88-.54a15.14,15.14,0,0,1-2.85-.27c-1.42-.34-3.39-1.29-6-7.4-4.34-10.3-15.19-38-16.82-41.71-.68-1.56-1.15-2.17-1.7-2.17s-1.08.75-1.89,2.71l-17,42.6c-1.36,3.39-2.65,5.7-5.77,6.1a17.21,17.21,0,0,1-2,.14c-.54,0-.95.14-.95.54,0,.55.41.68,1.29.68,3.52,0,7.25-.2,8-.2,2.1,0,5,.2,7.19.2.75,0,1.15-.13,1.15-.68,0-.4-.2-.54-1-.54h-1c-2.1,0-2.71-.88-2.71-2.1a13,13,0,0,1,1-4.14l3.67-9.7c.13-.41.27-.54.61-.54Zm-56.91-8.55c0-.34.14-.47.41-.47,1,0,1.7,0,2.92.06a9.78,9.78,0,0,1,5.63,1.63c5.15,3.6,6.58,9.29,6.58,13.5,0,7-5.16,8.68-8.21,8.68a12.3,12.3,0,0,1-4.95-.81c-2.17-.88-2.38-2-2.38-6.51V75.23Zm0-21c0-.74.14-1,.61-1.15A10.67,10.67,0,0,1,329,53c5.84,0,8.48,6,8.48,10.52,0,3.32-1,5.76-2.78,7.19C333.53,71.7,332,72,329.8,72a16.08,16.08,0,0,1-3.19-.21c-.27-.07-.48-.2-.48-.74ZM318,81.81c0,6.24,0,11.6-.34,14.45-.27,2-.55,3.25-1.84,3.66a8.88,8.88,0,0,1-2.57.34c-.82,0-1.09.2-1.09.54s.48.68,1.36.68c3.05,0,5.83-.2,8.54-.2,3.6,0,6.72.4,9.84.4,12.48,0,18.11-7.53,18.11-14.78,0-7.94-6.78-12.75-12.35-14.65,3.74-3,6.92-6.31,6.92-11.87,0-3.6-2.17-10.18-14.44-10.18-2.31,0-4.95.21-8.28.21-1.36,0-5.63-.21-9.22-.21-1,0-1.5.14-1.5.61s.41.61,1.16.61a13.45,13.45,0,0,1,2.64.21c2.24.47,2.78,1.56,2.92,3.86s.14,4.07.14,14.38Zm-43.41-1.42c-.28,0-.34-.21-.28-.48l6.24-16.68c.28-.82.55-.61.75,0L287.4,80c.07.2,0,.41-.33.41Zm13.76,3.39a.65.65,0,0,1,.68.47l5.43,14.38a1.1,1.1,0,0,1-.61,1.56c-.68.07-1,.27-1,.61s.34.48,1.56.55c5.42.13,10.85.13,13.29.13s3.12-.13,3.12-.68c0-.4-.34-.54-.88-.54a15.22,15.22,0,0,1-2.85-.27c-1.42-.34-3.39-1.29-6-7.4-4.34-10.3-15.19-38-16.82-41.71-.68-1.56-1.15-2.17-1.69-2.17s-1.09.75-1.9,2.71l-17,42.6c-1.35,3.39-2.64,5.7-5.76,6.1a17.39,17.39,0,0,1-2,.14c-.54,0-.95.14-.95.54,0,.55.41.68,1.29.68,3.53,0,7.26-.2,8-.2,2.11,0,5,.2,7.19.2.75,0,1.16-.13,1.16-.68,0-.4-.21-.54-1-.54h-1c-2.1,0-2.71-.88-2.71-2.1A13.07,13.07,0,0,1,269,94l3.66-9.7c.13-.41.27-.54.61-.54ZM205.27,99.92c.61,1.76.88,2.51,1.56,2.51s1.15-.81,2.44-3.59c2.91-6.25,11.94-30.26,13.29-33.92l14.18,34.19c1,2.51,1.42,3.32,2.1,3.32.88,0,1.22-.81,2-3.19C244.13,89.07,251.25,67.5,254.37,59c1.43-3.86,2.17-6.58,3.8-7.19a7.53,7.53,0,0,1,2.38-.34c.61,0,.95-.2.95-.67s-.48-.55-1.23-.55c-2.23,0-5.15.21-5.63.21s-3.45-.21-7-.21c-1,0-1.56.14-1.56.61s.47.61,1.15.61c2.65,0,3.26.95,3.26,2a14.21,14.21,0,0,1-.68,3.93c-2.37,7.94-7.8,25.84-9.09,30.66L226.43,53.66c-.88-2.17-1.22-3.19-2-3.19-.54,0-1,.55-1.69,2.45l-13.3,35.61c-1.29-4.07-7.6-24.63-8.75-29.1a44.9,44.9,0,0,1-1.49-6.24c0-.75.13-1.22.75-1.49a3.45,3.45,0,0,1,1.69-.28c.68,0,1.22-.06,1.22-.61s-.47-.61-1.42-.61c-3.94,0-6.92.21-7.53.21s-4.34-.21-7.87-.21c-.95,0-1.49.14-1.49.61s.41.61,1.08.61a6.11,6.11,0,0,1,2.72.61c1,.68,1.69,2.31,2.51,4.82Z"/><path class="cls-1" d="M356.24,112.91a.19.19,0,0,1,.15-.22,3.39,3.39,0,0,1,.84-.06c.93,0,2.42.65,2.42,2.9a2.79,2.79,0,0,1-.93,2.37,1.59,1.59,0,0,1-1.13.27,4.15,4.15,0,0,1-1.2-.16c-.11,0-.15-.11-.15-.28Zm-11.87,6.35c0,1.46,0,2.71-.08,3.38-.06.46-.14.8-.46.87a2.68,2.68,0,0,1-.57.06c-.19,0-.25.05-.25.13s.11.16.31.16c.72,0,1.36,0,2,0,1.58,0,3,.09,4.38.09.61,0,.75,0,.86-.41a12.11,12.11,0,0,0,.21-1.76c0-.15,0-.28-.13-.28s-.14.06-.18.24c-.11.65-.3,1-.71,1.17a4,4,0,0,1-1.49.19c-1.61,0-1.87-.24-1.9-1.33,0-.46,0-1.92,0-2.46V118c0-.09,0-.16.1-.16.38,0,2,0,2.25.05.58.07.8.3.88.62a3.24,3.24,0,0,1,.07.46c0,.08,0,.25.14.25s.14-.17.14-.3.05-.74.07-1.06c.06-.81.12-1.06.12-1.16s-.05-.12-.11-.12-.14.08-.25.2-.38.21-.76.24-2.19,0-2.54,0c-.09,0-.11-.06-.11-.17v-4c0-.11,0-.16.11-.16.32,0,2,0,2.25.07.79.09.95.28,1.06.57a1.57,1.57,0,0,1,.1.5c0,.19,0,.29.14.29s.14-.1.16-.17.06-.89.08-1a10.24,10.24,0,0,1,.13-1c0-.08,0-.14-.1-.14a2.27,2.27,0,0,0-.25.06c-.13,0-.38.06-.68.1h-4c-.83,0-1.55-.05-2.28-.05-.24,0-.35,0-.35.15s.09.14.27.14a3.44,3.44,0,0,1,.62,0c.52.11.64.36.68.9s0,.95,0,3.36Zm-12.84-3c0-1.25,0-2.63,0-3.16a.29.29,0,0,1,.19-.32,4.42,4.42,0,0,1,1-.11,6.29,6.29,0,0,1,4.5,1.58,5.39,5.39,0,0,1,1.52,4,5,5,0,0,1-1.33,3.94,5.06,5.06,0,0,1-3.64,1.14c-1.25,0-1.87-.33-2.08-.63a3.25,3.25,0,0,1-.17-1.2c0-.3,0-1.52,0-3.2Zm-2,3c0,1.46,0,2.71-.08,3.38-.07.46-.15.8-.46.87a2.84,2.84,0,0,1-.57.06c-.19,0-.26.05-.26.13s.12.16.32.16.73,0,1.09,0h.91c.39,0,.95,0,1.55.09s1.25.1,1.82.1a7.21,7.21,0,0,0,5.3-1.87,6.27,6.27,0,0,0,1.73-4.42,5.62,5.62,0,0,0-1.54-4c-1.72-1.81-4.37-1.81-6.35-1.81-.95,0-1.94.05-2.43.05s-1.45-.05-2.28-.05c-.24,0-.35,0-.35.15s.09.14.27.14a3.24,3.24,0,0,1,.61,0c.53.11.65.36.68.9s0,.95,0,3.36Zm-10.14-.33c-.06,0-.08-.05-.06-.11l1.45-3.9c.07-.19.13-.14.18,0l1.42,3.92s0,.09-.08.09Zm3.22.79a.15.15,0,0,1,.15.11l1.27,3.36a.27.27,0,0,1-.14.37c-.16,0-.22.06-.22.14s.08.11.36.12c1.27,0,2.53,0,3.1,0s.73,0,.73-.16-.08-.13-.2-.13a3.32,3.32,0,0,1-.67-.06c-.33-.08-.79-.3-1.39-1.73-1-2.41-3.55-8.87-3.93-9.74-.16-.36-.27-.5-.39-.5s-.26.17-.45.63l-4,9.94c-.32.8-.62,1.33-1.35,1.43a3.44,3.44,0,0,1-.46,0c-.12,0-.22,0-.22.13s.1.16.3.16c.82,0,1.7,0,1.87,0,.49,0,1.17,0,1.68,0,.17,0,.27,0,.27-.16s-.05-.13-.24-.13h-.24c-.49,0-.63-.2-.63-.49a3.09,3.09,0,0,1,.24-1l.85-2.26c0-.1.06-.13.14-.13Zm-14.18-.46c0,1.46,0,2.71-.08,3.38-.06.46-.14.8-.46.87a2.68,2.68,0,0,1-.57.06c-.19,0-.25.05-.25.13s.11.16.32.16c.71,0,1.36,0,2,0,1.59,0,3,.09,4.39.09.6,0,.74,0,.85-.41a12.11,12.11,0,0,0,.21-1.76c0-.15,0-.28-.13-.28s-.14.06-.17.24c-.11.65-.3,1-.71,1.17a4,4,0,0,1-1.49.19c-1.62,0-1.87-.24-1.9-1.33,0-.46,0-1.92,0-2.46V118c0-.09,0-.16.09-.16.38,0,1.95,0,2.25.05.59.07.81.3.89.62a2.15,2.15,0,0,1,.06.46c0,.08,0,.25.14.25s.15-.17.15-.3,0-.74.06-1.06c.06-.81.13-1.06.13-1.16s-.05-.12-.11-.12-.15.08-.26.2-.38.21-.76.24-2.18,0-2.53,0c-.1,0-.11-.06-.11-.17v-4c0-.11,0-.16.11-.16.32,0,2,0,2.25.07.79.09.95.28,1.06.57a1.49,1.49,0,0,1,.09.5c0,.19,0,.29.15.29s.14-.1.15-.17.07-.89.08-1a10.24,10.24,0,0,1,.13-1c0-.08,0-.14-.09-.14a2.44,2.44,0,0,0-.26.06c-.12,0-.38.06-.68.1h-4c-.82,0-1.55-.05-2.28-.05-.24,0-.35,0-.35.15s.1.14.27.14a3.44,3.44,0,0,1,.62,0c.52.11.65.36.68.9s0,.95,0,3.36Zm-7.6-2.78c0-2.41,0-2.85,0-3.36s.16-.82.59-.9a4.44,4.44,0,0,1,.62,0c.19,0,.28,0,.28-.14s-.11-.15-.33-.15c-.62,0-1.77.05-2.15.05s-1.43-.05-2.17-.05c-.24,0-.35,0-.35.15s.09.14.27.14a2.47,2.47,0,0,1,.52,0c.52.11.65.36.68.9s0,.95,0,3.36v2.78c0,1.46,0,2.71-.08,3.38-.06.46-.14.8-.46.87a2.68,2.68,0,0,1-.57.06c-.19,0-.25.05-.25.13s.11.16.32.16c.71,0,1.36,0,2,0,1.7,0,3.15.09,4.61.09.82,0,.9-.08,1-.42a13.66,13.66,0,0,0,.24-1.82c0-.19,0-.27-.13-.27s-.16.09-.18.23a2,2,0,0,1-.41.95c-.39.43-1,.45-1.85.45-1.24,0-1.65-.11-1.92-.35s-.33-1.38-.33-3.41Zm-14.33,0c0-2.41,0-2.85,0-3.36s.16-.82.59-.9a4.44,4.44,0,0,1,.62,0c.19,0,.28,0,.28-.14s-.11-.15-.33-.15c-.62,0-1.78.05-2.16.05s-1.42-.05-2.17-.05c-.23,0-.34,0-.34.15s.09.14.27.14a2.47,2.47,0,0,1,.52,0c.52.11.65.36.68.9s0,.95,0,3.36v2.78c0,1.46,0,2.71-.08,3.38-.06.46-.14.8-.46.87a2.68,2.68,0,0,1-.57.06c-.19,0-.25.05-.25.13s.11.16.32.16c.71,0,1.36,0,2,0,1.7,0,3.15.09,4.61.09.82,0,.9-.08,1-.42a13.37,13.37,0,0,0,.23-1.82c0-.19,0-.27-.12-.27s-.16.09-.18.23a2,2,0,0,1-.41.95c-.39.43-1,.45-1.85.45-1.24,0-1.65-.11-1.92-.35s-.33-1.38-.33-3.41Zm-12.11,2.45c-.07,0-.08-.05-.07-.11l1.46-3.9c.06-.19.13-.14.17,0l1.43,3.92s0,.09-.08.09Zm-11-6c0-.12,0-.19.14-.22a3.39,3.39,0,0,1,.84-.06c.93,0,2.42.65,2.42,2.9a2.79,2.79,0,0,1-.93,2.37,1.58,1.58,0,0,1-1.13.27,4.2,4.2,0,0,1-1.2-.16c-.11,0-.14-.11-.14-.28Zm-1.87,6.35c0,1.46,0,2.71-.08,3.38-.06.46-.14.8-.46.87a2.68,2.68,0,0,1-.57.06c-.19,0-.25.05-.25.13s.11.16.31.16c.64,0,1.64,0,1.94,0s1.41,0,2.32,0c.21,0,.32,0,.32-.16s-.06-.13-.19-.13a7.41,7.41,0,0,1-.77-.06c-.48-.07-.57-.41-.62-.87-.08-.67-.08-1.92-.08-3.39V119c0-.1.05-.13.13-.13l1.32,0a.34.34,0,0,1,.29.11c.21.24.93,1.32,1.57,2.19a7.64,7.64,0,0,0,2.17,2.33,2.55,2.55,0,0,0,1.12.28l.18,0h1.94a.43.43,0,0,0,.25,0c.44,0,1,0,1.35,0,.18,0,.27,0,.27-.16s0-.13-.24-.13h-.23c-.49,0-.64-.2-.64-.49a3.09,3.09,0,0,1,.24-1l.86-2.26c0-.1.06-.13.14-.13h3.53a.15.15,0,0,1,.16.11l1.27,3.36a.28.28,0,0,1-.15.37c-.16,0-.22.06-.22.14s.08.11.37.12c1.26,0,2.53,0,3.1,0s.73,0,.73-.16-.08-.13-.21-.13a3.17,3.17,0,0,1-.66-.06c-.34-.08-.8-.3-1.4-1.73-1-2.41-3.54-8.87-3.92-9.74-.16-.36-.27-.5-.4-.5s-.25.17-.44.63l-4,9.94a2.64,2.64,0,0,1-.75,1.2,4.28,4.28,0,0,1-1.12-.86c-.93-1-2-2.41-3.43-4.18,1.6-1.3,2.07-2.36,2.07-3.54a2.71,2.71,0,0,0-1.08-2.16,5,5,0,0,0-2.91-.69c-.49,0-1.69.05-2.23.05-.33,0-1.33-.05-2.17-.05-.24,0-.35,0-.35.15s.1.14.27.14a3.44,3.44,0,0,1,.62,0c.52.11.65.36.68.9s0,.95,0,3.36Zm-9.36,4c-3,0-4.86-2.62-4.86-5.91,0-3.94,2.07-5,3.89-5,2.6,0,4.64,2.2,4.64,5.75C255.81,122.75,253.25,123.29,252.14,123.29Zm-.66.79a6.26,6.26,0,0,0,6.55-6.49c0-3.63-2.45-5.93-6.4-5.93-4.75,0-6.54,3.5-6.54,6.21A6,6,0,0,0,251.48,124.08Zm-11.79-11.31,2,0c1.41,0,1.84.47,1.87.89,0,0,0,.12,0,.17,0,.24.05.32.18.32s.12-.1.14-.26c0-.41.05-1.5.05-1.83s0-.34-.13-.34-.19,0-.43.08a7.62,7.62,0,0,1-1.09.08H236a15.75,15.75,0,0,1-1.58-.08,3.28,3.28,0,0,1-.68-.19c-.1,0-.15.1-.19.3s-.34,1.57-.34,1.82,0,.26.15.26.14-.06.17-.19a1.81,1.81,0,0,1,.27-.56c.24-.34.62-.42,1.53-.46l2.36-.06v6.49c0,1.46,0,2.71-.07,3.38,0,.46-.15.8-.46.87a2.84,2.84,0,0,1-.57.06c-.19,0-.26.05-.26.13s.11.16.32.16c.63,0,1.63,0,2,0s1.45,0,2.49,0c.17,0,.3,0,.3-.16s-.08-.13-.25-.13a7,7,0,0,1-.81-.06c-.47-.07-.57-.41-.62-.86-.08-.68-.08-1.93-.08-3.39Zm-11.62,11.31a4.55,4.55,0,0,0,2.52-.65,3.21,3.21,0,0,0,1.49-2.76c0-1.5-.68-2.59-2.6-4l-.44-.34c-1.32-1-1.68-1.55-1.68-2.28a1.66,1.66,0,0,1,1.88-1.63,2,2,0,0,1,1.73.78,1.92,1.92,0,0,1,.41,1c0,.19.05.29.16.29s.17-.13.17-.48c0-1.23.07-1.69.07-1.9s-.08-.16-.23-.19-.38-.09-.64-.14a8.94,8.94,0,0,0-1.46-.13c-2.2,0-3.66,1.25-3.66,3,0,1.28.6,2.39,2.34,3.75l.73.57c1.32,1,1.55,1.76,1.55,2.53a1.92,1.92,0,0,1-2.12,1.81,2.18,2.18,0,0,1-2.26-1.6,3.34,3.34,0,0,1-.15-.81c0-.13,0-.27-.15-.27s-.18.18-.19.41-.08,1.21-.08,2.08c0,.35,0,.43.3.54A5.48,5.48,0,0,0,228.07,124.08Zm-11.26-5.15c-.06,0-.08-.05-.06-.11l1.46-3.9c.06-.19.12-.14.17,0l1.42,3.92s0,.09-.07.09Zm3.22.79a.14.14,0,0,1,.15.11l1.27,3.36a.27.27,0,0,1-.14.37c-.16,0-.22.06-.22.14s.08.11.36.12c1.27,0,2.53,0,3.1,0s.73,0,.73-.16-.08-.13-.2-.13a3.32,3.32,0,0,1-.67-.06c-.33-.08-.79-.3-1.39-1.73-1-2.41-3.55-8.87-3.93-9.74-.16-.36-.27-.5-.39-.5s-.26.17-.45.63l-4,9.94c-.32.8-.62,1.33-1.35,1.43a3.44,3.44,0,0,1-.46,0c-.12,0-.22,0-.22.13s.1.16.3.16c.82,0,1.7,0,1.87,0,.49,0,1.17,0,1.68,0,.17,0,.27,0,.27-.16s-.05-.13-.24-.13h-.24c-.49,0-.63-.2-.63-.49a3.09,3.09,0,0,1,.24-1l.85-2.26c0-.1.07-.13.14-.13Zm-14.54-.46c0,1.46,0,2.71-.08,3.38-.06.46-.14.8-.46.87a2.68,2.68,0,0,1-.57.06c-.19,0-.25.05-.25.13s.11.16.31.16c.64,0,1.64,0,2,0s1.41,0,2.45,0c.18,0,.3,0,.3-.16s-.07-.13-.25-.13a7.18,7.18,0,0,1-.81-.06c-.47-.07-.57-.41-.61-.86-.08-.68-.08-1.93-.08-3.39v-6.33q0-.25.12-.3a2.2,2.2,0,0,1,.62-.06,2.46,2.46,0,0,1,1.63.61,3,3,0,0,1,.89,2.36,2.51,2.51,0,0,1-2.12,2.63c-.34,0-.45,0-.45.17s.11.13.19.15h.34a3.71,3.71,0,0,0,3.89-3.59,2.82,2.82,0,0,0-.76-2.08c-.36-.34-1-1-3-1-.72,0-1.64.05-2.29.05-.44,0-1.44-.05-2.28-.05-.24,0-.35,0-.35.15s.09.14.27.14a3.44,3.44,0,0,1,.62,0c.52.11.65.36.68.9s0,.95,0,3.36Zm271.18-.33c-.06,0-.07-.05-.06-.11l1.46-3.9c.06-.19.13-.14.17,0l1.43,3.92s0,.09-.08.09Zm-11-6c0-.12,0-.19.14-.22a3.39,3.39,0,0,1,.84-.06c.93,0,2.42.65,2.42,2.9a2.79,2.79,0,0,1-.93,2.37,1.58,1.58,0,0,1-1.13.27,4.2,4.2,0,0,1-1.2-.16c-.11,0-.14-.11-.14-.28Zm-1.87,6.35c0,1.46,0,2.71-.08,3.38-.06.46-.14.8-.46.87a2.68,2.68,0,0,1-.57.06c-.19,0-.25.05-.25.13s.11.16.31.16c.64,0,1.63,0,1.94,0s1.41,0,2.32,0c.21,0,.32,0,.32-.16s-.06-.13-.19-.13a7.81,7.81,0,0,1-.78-.06c-.47-.07-.57-.41-.61-.87-.08-.67-.08-1.92-.08-3.39V119c0-.1.05-.13.12-.13l1.33,0a.34.34,0,0,1,.29.11c.21.24.93,1.32,1.57,2.19a7.64,7.64,0,0,0,2.17,2.33,2.55,2.55,0,0,0,1.12.28l.18,0h1.94a.44.44,0,0,0,.25,0c.44,0,.95,0,1.35,0,.18,0,.27,0,.27-.16s-.05-.13-.24-.13h-.23c-.49,0-.64-.2-.64-.49a3.09,3.09,0,0,1,.24-1l.86-2.26c0-.1.06-.13.14-.13h3.53a.15.15,0,0,1,.16.11l1.27,3.36a.28.28,0,0,1-.15.37c-.16,0-.22.06-.22.14s.08.11.37.12c1.26,0,2.53,0,3.1,0h.32c.5,0,1.26,0,1.56,0s1,0,1.67,0c.23,0,.38,0,.38-.18s-.11-.11-.24-.11a2.75,2.75,0,0,1-.67-.08c-.27-.06-.47-.2-.47-.51a4.93,4.93,0,0,1,0-.74l.84-6.41c.55,1.19,1.55,3.29,1.69,3.62s1.44,2.87,1.82,3.6c.25.47.41.79.56.79s.22-.14.58-.89l3.5-7.28,1,7.06c.06.45,0,.65-.08.68s-.18.1-.18.18.1.14.46.17c.64,0,2.82.1,3.22.1.22,0,.41,0,.41-.18s-.11-.11-.26-.11a3,3,0,0,1-1-.16c-.47-.14-.63-.6-.77-1.6L497.36,112c-.05-.34-.15-.49-.29-.49s-.22.12-.35.38l-4.3,9L488.09,112c-.2-.41-.3-.49-.43-.49s-.22.14-.26.41l-1.57,10.32c-.08.54-.21,1.16-.65,1.25a1.37,1.37,0,0,1-.35,0h0a3.71,3.71,0,0,1-.54-.06c-.34-.08-.8-.3-1.4-1.73-1-2.41-3.54-8.87-3.92-9.74-.16-.36-.27-.5-.4-.5s-.25.17-.44.63l-4,9.94a2.64,2.64,0,0,1-.75,1.2,4.28,4.28,0,0,1-1.12-.86c-.93-1-2-2.41-3.43-4.18,1.6-1.3,2.07-2.36,2.07-3.54a2.71,2.71,0,0,0-1.08-2.16,5,5,0,0,0-2.91-.69c-.49,0-1.69.05-2.23.05-.34,0-1.33-.05-2.17-.05-.24,0-.35,0-.35.15s.09.14.27.14a3.44,3.44,0,0,1,.62,0c.52.11.65.36.68.9s0,.95,0,3.36Zm-4.42,1.79c0-.79,0-1.42,0-1.9s.17-.82.6-.9a2.7,2.7,0,0,1,.43,0c.11,0,.2,0,.2-.12s-.11-.16-.32-.16c-.52,0-1.36,0-1.85,0s-1.47,0-2.29,0c-.23,0-.34,0-.34.16s.1.12.24.12a3.44,3.44,0,0,1,.62,0c.52.11.66.36.68.9s0,1.08,0,1.87v1.49a.58.58,0,0,1-.31.59,3.56,3.56,0,0,1-1.34.17c-3.34,0-5.51-2.55-5.51-6a4.72,4.72,0,0,1,1.45-3.88,4.58,4.58,0,0,1,3.14-1,5,5,0,0,1,3.53,1.24,2.24,2.24,0,0,1,.54,1.31c0,.13.05.21.16.21s.17-.08.17-.33a21.52,21.52,0,0,1,.11-2.6c0-.11,0-.17-.22-.19a12.15,12.15,0,0,1-1.25-.17,18,18,0,0,0-2.8-.26,7.66,7.66,0,0,0-4.26,1,5.93,5.93,0,0,0-2.76,5.18c0,4.37,3.44,6.21,7.32,6.21a9,9,0,0,0,3.81-.71c.19-.12.21-.15.21-.57Zm-19,2.24c-3,0-4.86-2.62-4.86-5.91,0-3.94,2.07-5,3.89-5,2.6,0,4.64,2.2,4.64,5.75C444.05,122.75,441.49,123.29,440.38,123.29Zm-.67.79a6.26,6.26,0,0,0,6.56-6.49c0-3.63-2.45-5.93-6.4-5.93-4.75,0-6.54,3.5-6.54,6.21A6,6,0,0,0,439.71,124.08ZM425,112.91c0-.12,0-.19.14-.22a3.44,3.44,0,0,1,.84-.06c.94,0,2.43.65,2.43,2.9a2.77,2.77,0,0,1-.94,2.37,1.55,1.55,0,0,1-1.12.27,4.27,4.27,0,0,1-1.21-.16c-.11,0-.14-.11-.14-.28Zm-1.87,6.35c0,1.46,0,2.71-.08,3.38-.06.46-.14.8-.46.87a2.68,2.68,0,0,1-.57.06c-.19,0-.25.05-.25.13s.11.16.32.16c.63,0,1.63,0,1.93,0s1.41,0,2.33,0c.2,0,.31,0,.31-.16s-.06-.13-.19-.13a7.63,7.63,0,0,1-.77-.06c-.48-.07-.57-.41-.62-.87-.08-.67-.08-1.92-.08-3.39V119c0-.1,0-.13.13-.13l1.33,0a.34.34,0,0,1,.28.11c.21.24.94,1.32,1.57,2.19a7.77,7.77,0,0,0,2.17,2.33,3.25,3.25,0,0,0,1.7.3h1.55c.19,0,.3,0,.3-.16s-.07-.13-.19-.13a2,2,0,0,1-.45,0,3,3,0,0,1-1.75-1.07c-.94-1-2-2.41-3.44-4.18,1.6-1.3,2.07-2.36,2.07-3.54a2.73,2.73,0,0,0-1.07-2.16,5.06,5.06,0,0,0-2.92-.69c-.49,0-1.69.05-2.23.05-.33,0-1.33-.05-2.17-.05-.24,0-.35,0-.35.15s.1.14.27.14a3.44,3.44,0,0,1,.62,0c.52.11.65.36.68.9s0,.95,0,3.36Zm-10.37,0c0,1.46,0,2.71-.08,3.38-.06.46-.14.8-.46.87a2.68,2.68,0,0,1-.57.06c-.19,0-.25.05-.25.13s.11.16.32.16c.63,0,1.63,0,2,0s1.41,0,2.46,0c.17,0,.3,0,.3-.16s-.08-.13-.26-.13a7,7,0,0,1-.8-.06c-.48-.07-.57-.41-.62-.86-.08-.68-.08-1.93-.08-3.39v-6.33c0-.17.05-.27.13-.3a2.09,2.09,0,0,1,.61-.06,2.44,2.44,0,0,1,1.63.61,3,3,0,0,1,.89,2.36,2.51,2.51,0,0,1-2.12,2.63c-.33,0-.44,0-.44.17s.11.13.19.15h.33a3.71,3.71,0,0,0,3.89-3.59,2.82,2.82,0,0,0-.76-2.08c-.36-.34-1-1-3-1-.73,0-1.65.05-2.3.05-.44,0-1.44-.05-2.28-.05-.24,0-.35,0-.35.15s.1.14.27.14a3.44,3.44,0,0,1,.62,0c.52.11.65.36.68.9s0,.95,0,3.36Zm-15.12,0c0,1.46,0,2.71-.08,3.38-.07.46-.14.8-.46.87a2.68,2.68,0,0,1-.57.06c-.19,0-.25.05-.25.13s.11.16.31.16c.64,0,1.63,0,2,0s1.41,0,2.45,0c.18,0,.3,0,.3-.16s-.08-.13-.25-.13a7,7,0,0,1-.81-.06c-.47-.07-.57-.41-.62-.86-.07-.68-.07-1.93-.07-3.39v-6.33q0-.25.12-.3a2.16,2.16,0,0,1,.62-.06,2.46,2.46,0,0,1,1.63.61,3,3,0,0,1,.89,2.36,2.51,2.51,0,0,1-2.12,2.63c-.34,0-.45,0-.45.17s.11.13.19.15h.33a3.72,3.72,0,0,0,3.9-3.59,2.82,2.82,0,0,0-.76-2.08c-.36-.34-1-1-3-1-.73,0-1.64.05-2.29.05-.45,0-1.44-.05-2.28-.05-.24,0-.35,0-.35.15s.09.14.27.14a3.24,3.24,0,0,1,.61,0c.53.11.65.36.69.9s0,.95,0,3.36Zm-7.16,0c0,1.54,0,2.79-.08,3.46-.05.46-.14.72-.46.79a2.68,2.68,0,0,1-.57.06c-.19,0-.25.05-.25.13s.11.16.31.16c.64,0,1.64,0,2,0s1.42,0,2.47,0c.17,0,.3,0,.3-.16s-.08-.13-.25-.13a7,7,0,0,1-.81-.06c-.48-.07-.59-.35-.63-.78-.07-.68-.07-1.93-.07-3.47v-2.78c0-2.41,0-2.85,0-3.36s.16-.82.59-.9a2.9,2.9,0,0,1,.48,0c.15,0,.25,0,.25-.16s-.13-.13-.33-.13c-.61,0-1.54.05-1.94.05s-1.45-.05-2.05-.05c-.26,0-.38,0-.38.13s.09.16.25.16a2.62,2.62,0,0,1,.57.06c.35.08.51.35.54.89s0,.95,0,3.36Zm-13.3-2.34a.1.1,0,0,1-.1-.11v-.33c0-2.41,0-2.85,0-3.36s.16-.86.59-.92l.46,0c.14,0,.28,0,.28-.14s-.11-.15-.33-.15c-.62,0-1.61.05-2,.05s-1.43-.05-2.28-.05c-.23,0-.34,0-.34.15s.1.14.27.14a3.36,3.36,0,0,1,.62,0c.52.11.65.36.68.9s0,.95,0,3.36v2.78c0,1.46,0,2.71-.08,3.38-.06.46-.14.8-.46.87a2.65,2.65,0,0,1-.56.06c-.2,0-.26.05-.26.13s.11.16.32.16c.63,0,1.63,0,2,0s1.44,0,2.47,0c.19,0,.32,0,.32-.16s-.08-.13-.25-.13a7,7,0,0,1-.81-.06c-.48-.07-.57-.41-.62-.86-.08-.68-.08-1.93-.08-3.39v-1.39c0-.08.05-.09.1-.09h6.05a.09.09,0,0,1,.09.09v1.39c0,1.46,0,2.71-.08,3.38-.06.46-.14.8-.46.87a2.68,2.68,0,0,1-.57.06c-.19,0-.25.05-.25.13s.11.16.33.16c.62,0,1.62,0,2,0s1.44,0,2.47,0c.19,0,.32,0,.32-.16s-.08-.13-.25-.13a7,7,0,0,1-.81-.06c-.48-.07-.57-.41-.62-.86-.08-.68-.08-1.93-.08-3.39v-2.78c0-2.41,0-2.85,0-3.36s.16-.82.59-.9a3,3,0,0,1,.46,0c.19,0,.28,0,.28-.14s-.11-.15-.33-.15c-.62,0-1.61.05-2,.05s-1.43-.05-2.28-.05c-.23,0-.34,0-.34.15s.1.14.27.14a3.44,3.44,0,0,1,.62,0c.52.11.65.36.68.9s0,.95,0,3.36v.33c0,.08-.05.11-.09.11Zm-9.69,7.16a4.52,4.52,0,0,0,2.51-.65,3.21,3.21,0,0,0,1.49-2.76c0-1.5-.68-2.59-2.59-4l-.45-.34c-1.31-1-1.68-1.55-1.68-2.28a1.67,1.67,0,0,1,1.89-1.63,2,2,0,0,1,1.72.78,1.88,1.88,0,0,1,.42,1c0,.19,0,.29.15.29s.18-.13.18-.48c0-1.23.06-1.69.06-1.9s-.08-.16-.22-.19-.38-.09-.65-.14a8.83,8.83,0,0,0-1.46-.13c-2.2,0-3.65,1.25-3.65,3,0,1.28.6,2.39,2.34,3.75l.73.57c1.31,1,1.55,1.76,1.55,2.53a1.93,1.93,0,0,1-2.12,1.81,2.19,2.19,0,0,1-2.27-1.6,3.28,3.28,0,0,1-.14-.81c0-.13,0-.27-.16-.27s-.17.18-.19.41-.08,1.21-.08,2.08c0,.24,0,.35.13.44a2.21,2.21,0,0,1-.33,0,3.05,3.05,0,0,1-1.76-1.07c-.94-1-2-2.41-3.44-4.18,1.6-1.3,2.08-2.36,2.08-3.54a2.73,2.73,0,0,0-1.08-2.16,5,5,0,0,0-2.91-.69c-.49,0-1.7.05-2.24.05-.33,0-1.33-.05-2.16-.05-.24,0-.35,0-.35.15s.09.14.27.14a3.24,3.24,0,0,1,.61,0c.53.11.65.36.68.9s0,.95,0,3.36v2.78c0,1.46,0,2.71-.08,3.38-.07.46-.15.8-.46.87a2.76,2.76,0,0,1-.57.06c-.19,0-.26.05-.26.13s.12.16.32.16c.63,0,1.63,0,1.93,0s1.41,0,2.33,0c.21,0,.32,0,.32-.16s-.07-.13-.19-.13a7.81,7.81,0,0,1-.78-.06c-.47-.07-.57-.41-.62-.87-.08-.67-.08-1.92-.08-3.39V119c0-.1.05-.13.13-.13l1.33,0a.36.36,0,0,1,.29.11c.2.24.93,1.32,1.56,2.19a7.77,7.77,0,0,0,2.17,2.33,3.28,3.28,0,0,0,1.7.3H365c.18,0,.29,0,.3-.14A5.62,5.62,0,0,0,367.46,124.08Z"/></g></g></svg>